<svg width="16" height="16" viewBox="0 0 16 16" fill="none" xmlns="http://www.w3.org/2000/svg">
<path d="M9.33301 12V3.99996C9.33301 3.64634 9.19253 3.3072 8.94248 3.05715C8.69243 2.8071 8.3533 2.66663 7.99967 2.66663H2.66634C2.31272 2.66663 1.97358 2.8071 1.72353 3.05715C1.47348 3.3072 1.33301 3.64634 1.33301 3.99996V11.3333C1.33301 11.5101 1.40325 11.6797 1.52827 11.8047C1.65329 11.9297 1.82286 12 1.99967 12H3.33301" stroke="#171717" stroke-linecap="round" stroke-linejoin="round"/>
<path d="M10 12H6" stroke="#171717" stroke-linecap="round" stroke-linejoin="round"/>
<path d="M12.6663 12H13.9997C14.1765 12 14.3461 11.9298 14.4711 11.8048C14.5961 11.6798 14.6663 11.5102 14.6663 11.3334V8.90004C14.6661 8.74875 14.6144 8.60205 14.5197 8.48404L12.1997 5.58404C12.1373 5.50596 12.0582 5.44289 11.9682 5.39951C11.8782 5.35612 11.7796 5.33352 11.6797 5.33337H9.33301" stroke="#171717" stroke-linecap="round" stroke-linejoin="round"/>
<path d="M11.3333 13.3333C12.0697 13.3333 12.6667 12.7363 12.6667 12C12.6667 11.2636 12.0697 10.6666 11.3333 10.6666C10.597 10.6666 10 11.2636 10 12C10 12.7363 10.597 13.3333 11.3333 13.3333Z" stroke="#171717" stroke-linecap="round" stroke-linejoin="round"/>
<path d="M4.66634 13.3333C5.40272 13.3333 5.99967 12.7363 5.99967 12C5.99967 11.2636 5.40272 10.6666 4.66634 10.6666C3.92996 10.6666 3.33301 11.2636 3.33301 12C3.33301 12.7363 3.92996 13.3333 4.66634 13.3333Z" stroke="#171717" stroke-linecap="round" stroke-linejoin="round"/>
</svg>
