<svg width="16" height="16" viewBox="0 0 16 16" fill="none" xmlns="http://www.w3.org/2000/svg">
<g clip-path="url(#clip0_179_942)">
<path d="M1.33301 4.66671L4.27301 1.72671C4.39705 1.60193 4.54455 1.50293 4.70703 1.43543C4.8695 1.36792 5.04373 1.33324 5.21967 1.33337H10.7797C10.9556 1.33324 11.1298 1.36792 11.2923 1.43543C11.4548 1.50293 11.6023 1.60193 11.7263 1.72671L14.6663 4.66671" stroke="#171717" stroke-linecap="round" stroke-linejoin="round"/>
<path d="M2.66699 8V13.3333C2.66699 13.687 2.80747 14.0261 3.05752 14.2761C3.30756 14.5262 3.6467 14.6667 4.00033 14.6667H12.0003C12.3539 14.6667 12.6931 14.5262 12.9431 14.2761C13.1932 14.0261 13.3337 13.687 13.3337 13.3333V8" stroke="#171717" stroke-linecap="round" stroke-linejoin="round"/>
<path d="M10 14.6666V12C10 11.6463 9.85952 11.3072 9.60948 11.0572C9.35943 10.8071 9.02029 10.6666 8.66667 10.6666H7.33333C6.97971 10.6666 6.64057 10.8071 6.39052 11.0572C6.14048 11.3072 6 11.6463 6 12V14.6666" stroke="#171717" stroke-linecap="round" stroke-linejoin="round"/>
<path d="M1.33301 4.66663H14.6663" stroke="#171717" stroke-linecap="round" stroke-linejoin="round"/>
<path d="M14.6663 4.66663V6.66663C14.6663 7.02025 14.5259 7.35939 14.2758 7.60943C14.0258 7.85948 13.6866 7.99996 13.333 7.99996C12.9435 7.97852 12.5715 7.83112 12.273 7.57996C12.1935 7.52248 12.0978 7.49153 11.9997 7.49153C11.9015 7.49153 11.8059 7.52248 11.7263 7.57996C11.4279 7.83112 11.0559 7.97852 10.6663 7.99996C10.2768 7.97852 9.90483 7.83112 9.60634 7.57996C9.52679 7.52248 9.43115 7.49153 9.33301 7.49153C9.23486 7.49153 9.13922 7.52248 9.05967 7.57996C8.76119 7.83112 8.38918 7.97852 7.99967 7.99996C7.61016 7.97852 7.23816 7.83112 6.93967 7.57996C6.86013 7.52248 6.76448 7.49153 6.66634 7.49153C6.5682 7.49153 6.47255 7.52248 6.39301 7.57996C6.09452 7.83112 5.72252 7.97852 5.33301 7.99996C4.9435 7.97852 4.57149 7.83112 4.27301 7.57996C4.19346 7.52248 4.09782 7.49153 3.99967 7.49153C3.90153 7.49153 3.80589 7.52248 3.72634 7.57996C3.42785 7.83112 3.05585 7.97852 2.66634 7.99996C2.31272 7.99996 1.97358 7.85948 1.72353 7.60943C1.47348 7.35939 1.33301 7.02025 1.33301 6.66663V4.66663" stroke="#171717" stroke-linecap="round" stroke-linejoin="round"/>
</g>
<defs>
<clipPath id="clip0_179_942">
<rect width="16" height="16" fill="white"/>
</clipPath>
</defs>
</svg>
