<svg width="18" height="23" viewBox="0 0 18 23" fill="none" xmlns="http://www.w3.org/2000/svg">
<path d="M14.8389 12.3006C14.8496 11.466 15.072 10.6476 15.4851 9.92163C15.8983 9.19568 16.4889 8.58574 17.202 8.14857C16.749 7.50341 16.1514 6.97246 15.4566 6.59791C14.7619 6.22336 13.9891 6.01551 13.1997 5.99089C11.5157 5.81463 9.88319 6.99572 9.02508 6.99572C8.15036 6.99572 6.82916 6.00839 5.40645 6.03758C4.4862 6.06722 3.58934 6.33408 2.80326 6.81214C2.01718 7.29019 1.36869 7.96315 0.920971 8.76544C-1.01846 12.1139 0.428181 17.0349 2.28599 19.7415C3.21549 21.0669 4.30182 22.5473 5.72324 22.4948C7.1142 22.4373 7.63369 21.6103 9.31269 21.6103C10.9761 21.6103 11.4635 22.4948 12.9138 22.4614C14.4063 22.4373 15.3467 21.1302 16.2436 19.7923C16.9115 18.8479 17.4254 17.8042 17.7663 16.6998C16.8992 16.3341 16.1592 15.7219 15.6386 14.9396C15.118 14.1573 14.8399 13.2395 14.8389 12.3006Z" fill="black"/>
<path d="M12.0996 4.21083C12.9134 3.23663 13.3143 1.98445 13.2172 0.720215C11.9739 0.850435 10.8254 1.44299 10.0006 2.37982C9.59735 2.83749 9.28849 3.36993 9.09169 3.9467C8.8949 4.52347 8.81402 5.13326 8.8537 5.74121C9.47558 5.7476 10.0908 5.61319 10.653 5.3481C11.2153 5.08301 11.7099 4.69416 12.0996 4.21083Z" fill="black"/>
</svg>
