<svg width="1440" height="90" viewBox="0 0 1440 90" fill="none" xmlns="http://www.w3.org/2000/svg">
<path d="M1910.21 0.648812C1955.77 -0.146381 1993.04 18.7392 1993.46 42.8303C1993.88 66.9212 1957.29 87.0952 1911.73 87.8904C1888.87 88.2895 1868.09 83.7313 1853.02 76.0471C1838.21 84.2529 1817.61 89.5333 1794.75 89.9323C1771.59 90.3365 1750.58 85.6567 1735.46 77.7934C1727.8 82.0978 1718.54 85.6163 1708.2 88.0792L1722.36 899.171C1732.78 901.272 1742.15 904.466 1749.96 908.5C1764.8 900.114 1785.64 894.704 1808.79 894.3C1831.65 893.901 1852.43 898.458 1867.51 906.142C1882.31 897.937 1902.91 892.657 1925.77 892.258C1971.33 891.463 2008.6 910.348 2009.02 934.44C2009.44 958.53 1972.85 978.705 1927.29 979.5C1904.43 979.899 1883.66 975.341 1868.58 967.656C1853.78 975.862 1833.17 981.143 1810.31 981.542C1787.16 981.946 1766.14 977.266 1751.02 969.403C1736.09 977.79 1715.13 983.203 1691.83 983.61C1669.01 984.008 1648.26 979.526 1633.12 971.952C1618.25 980.049 1597.67 985.253 1574.85 985.652C1552.03 986.05 1531.28 981.568 1516.14 973.994C1501.27 982.091 1480.69 987.295 1457.87 987.694C1435.05 988.092 1414.29 983.61 1399.15 976.036C1384.29 984.133 1363.7 989.337 1340.88 989.736C1317.81 990.138 1296.85 985.552 1281.67 977.824C1266.76 986.077 1245.98 991.392 1222.9 991.795C1200.08 992.193 1179.33 987.711 1164.19 980.137C1149.32 988.235 1128.74 993.439 1105.92 993.837C1083.1 994.235 1062.35 989.753 1047.21 982.179C1032.34 990.277 1011.76 995.48 988.938 995.879C966.08 996.278 945.296 991.781 930.15 984.184C915.189 992.306 894.451 997.528 871.455 997.929C848.46 998.331 827.552 993.836 812.316 986.241C797.444 994.361 776.831 999.581 753.973 999.98C731.153 1000.38 710.4 995.896 695.261 988.322C680.395 996.42 659.812 1001.62 636.991 1002.02C614.171 1002.42 593.418 997.938 578.279 990.364C563.413 998.462 542.829 1003.67 520.009 1004.06C496.934 1004.47 475.973 999.88 460.792 992.152C445.89 1000.41 425.102 1005.72 402.027 1006.12C379.207 1006.52 358.454 1002.04 343.315 994.466C328.449 1002.56 307.865 1007.77 285.045 1008.17C262.224 1008.56 241.472 1004.08 226.332 996.508C211.467 1004.61 190.883 1009.81 168.063 1010.21C145.242 1010.61 124.49 1006.12 109.35 998.549C94.4844 1006.65 73.9008 1011.85 51.0804 1012.25C27.7855 1012.66 6.64419 1007.98 -8.57007 1000.12C-23.4098 1008.5 -44.2474 1013.91 -67.4015 1014.32C-90.2634 1014.72 -111.038 1010.16 -126.117 1002.47C-140.919 1010.68 -161.522 1015.96 -184.384 1016.36C-228.835 1017.14 -265.399 999.174 -267.537 975.921L-267.602 975.923L-283.196 82.5694C-283.616 58.4783 -247.026 38.3035 -201.47 37.5083C-178.608 37.1092 -157.833 41.6666 -142.754 49.3506C-127.953 41.145 -107.349 35.8654 -84.4874 35.4664C-61.3335 35.0622 -40.3196 39.7414 -25.1962 47.6043C-10.2656 39.2165 10.6998 33.8049 33.9945 33.3983C56.8147 32.9999 77.5676 37.4814 92.7069 45.055C107.573 36.9577 128.157 31.7546 150.977 31.3563C173.797 30.958 194.55 35.4395 209.689 43.0131C224.555 34.9158 245.139 29.7127 267.959 29.3144C290.779 28.9161 311.532 33.3976 326.671 40.9712C341.537 32.8738 362.121 27.6708 384.941 27.2725C408.016 26.8697 428.977 31.4556 444.158 39.1832C459.06 30.9305 479.849 25.6158 502.923 25.2131C525.743 24.8147 546.496 29.2963 561.635 36.8699C576.501 28.7725 597.085 23.5695 619.905 23.1711C642.725 22.7728 663.478 27.2543 678.618 34.8279C693.483 26.7306 714.067 21.5275 736.887 21.1292C759.745 20.7302 780.528 25.2268 795.674 32.8228C810.635 24.7011 831.374 19.4799 854.37 19.0786C877.364 18.6772 898.272 23.1717 913.508 30.766C928.38 22.6458 948.994 17.4269 971.852 17.0279C994.672 16.6296 1015.42 21.1111 1030.56 28.6847C1045.43 20.5873 1066.01 15.3843 1088.83 14.986C1111.65 14.5876 1132.41 19.0692 1147.55 26.6428C1162.41 18.5454 1183 13.3424 1205.82 12.944C1228.89 12.5413 1249.85 17.1272 1265.03 24.8548C1279.94 16.6021 1300.72 11.2874 1323.8 10.8846C1346.62 10.4863 1367.37 14.9678 1382.51 22.5414C1397.38 14.4441 1417.96 9.24104 1440.78 8.84272C1463.6 8.44439 1484.35 12.9259 1499.49 20.4995C1514.36 12.4022 1534.94 7.19911 1557.76 6.80079C1580.58 6.40246 1601.34 10.884 1616.47 18.4576C1631.34 10.3602 1651.92 5.15718 1674.74 4.75885C1698.04 4.35225 1719.18 9.02916 1734.39 16.8906C1749.23 8.50442 1770.07 3.0949 1793.23 2.69074C1816.09 2.29169 1836.86 6.849 1851.94 14.5331C1866.74 6.32744 1887.35 1.04786 1910.21 0.648812Z" fill="#FEFAEF"/>
</svg>
