<svg width="72" height="24" viewBox="0 0 72 24" fill="none" xmlns="http://www.w3.org/2000/svg">
<path d="M28.3725 3.67139C30.938 3.67139 33.1653 4.59708 35.0547 6.44846C36.9441 8.29984 37.8887 10.6011 37.8887 13.3522C37.8887 16.086 36.9873 18.4218 35.1847 20.3597C33.3819 22.2803 31.1634 23.2407 28.5285 23.2407C25.8939 23.2407 23.6493 22.289 21.7945 20.3858C19.9572 18.4824 19.0386 16.2158 19.0386 13.5858C19.0386 12.1497 19.2985 10.8087 19.8186 9.56292C20.3386 8.29984 21.0319 7.24438 21.8986 6.39655C22.7652 5.54872 23.762 4.88257 24.8887 4.39811C26.0152 3.91362 27.1766 3.67139 28.3725 3.67139ZM23.6407 13.456C23.6407 14.9959 24.1345 16.2504 25.1226 17.2193C26.128 18.171 27.246 18.6467 28.4767 18.6467C29.7073 18.6467 30.8167 18.1796 31.8047 17.2453C32.7926 16.3109 33.2866 15.0565 33.2866 13.482C33.2866 11.9074 32.7839 10.6443 31.7787 9.69269C30.7906 8.74105 29.6813 8.26523 28.4506 8.26523C27.22 8.26523 26.1106 8.74969 25.1226 9.71865C24.1345 10.6703 23.6407 11.9161 23.6407 13.456Z" fill="#D75F20"/>
<path d="M43.6709 19.0879H50.743C51.3149 19.0879 51.7311 19.1572 51.991 19.2956C52.2509 19.4167 52.4243 19.6157 52.5111 19.8925C52.5976 20.1694 52.641 20.5414 52.641 21.0087C52.641 21.4584 52.5976 21.8217 52.5111 22.0986C52.4243 22.3756 52.277 22.5659 52.0689 22.6697C51.7396 22.8426 51.2889 22.9292 50.717 22.9292H41.357C40.1435 22.9292 39.4329 22.6004 39.2248 21.943C39.1209 21.6661 39.0688 21.2249 39.0688 20.6193V6.18896C39.0688 5.79101 39.0775 5.49686 39.0949 5.30654C39.1296 5.0989 39.2162 4.86532 39.3548 4.60577C39.5976 4.1386 40.2736 3.90503 41.383 3.90503C42.5963 3.90503 43.3156 4.22512 43.541 4.86532C43.6276 5.15945 43.6709 5.60932 43.6709 6.21492V19.0879Z" fill="#D75F20"/>
<path d="M61.3996 3.67139C63.9648 3.67139 66.1922 4.59708 68.0816 6.44846C69.9709 8.29984 70.9156 10.6011 70.9156 13.3522C70.9156 16.086 70.0143 18.4218 68.2115 20.3597C66.4089 22.2803 64.1902 23.2407 61.5556 23.2407C58.9208 23.2407 56.6764 22.289 54.8217 20.3858C52.9843 18.4824 52.0654 16.2158 52.0654 13.5858C52.0654 12.1497 52.3256 10.8087 52.8454 9.56292C53.3655 8.29984 54.0589 7.24438 54.9255 6.39655C55.7921 5.54872 56.789 4.88257 57.9157 4.39811C59.0424 3.91362 60.2035 3.67139 61.3996 3.67139ZM56.6675 13.456C56.6675 14.9959 57.1617 16.2504 58.1496 17.2193C59.155 18.171 60.2731 18.6467 61.5037 18.6467C62.7344 18.6467 63.8435 18.1796 64.8316 17.2453C65.8195 16.3109 66.3135 15.0565 66.3135 13.482C66.3135 11.9074 65.811 10.6443 64.8056 9.69269C63.8175 8.74105 62.7081 8.26523 61.4775 8.26523C60.2468 8.26523 59.1377 8.74969 58.1496 9.71865C57.1617 10.6703 56.6675 11.9161 56.6675 13.456Z" fill="#D75F20"/>
<path d="M14.7692 22.523C16.1968 22.523 17.3538 21.3658 17.3538 19.9386C17.3538 18.5109 16.1968 17.3538 14.7692 17.3538C13.3418 17.3538 12.1846 18.5109 12.1846 19.9386C12.1846 21.3658 13.3418 22.523 14.7692 22.523Z" fill="#00827F"/>
<path d="M16.6712 2.3999C17.1501 2.39994 17.5385 2.79319 17.5385 3.27827C17.5385 3.27827 17.5385 4.97486 17.5385 6.06197C17.5385 6.12876 17.5307 6.19371 17.5167 6.25622C17.5204 6.28589 17.5206 6.31659 17.5159 6.34787L16.0394 16.1215C16.0082 16.3085 15.9748 16.4923 15.9385 16.6728C15.8974 16.8791 15.6756 16.9912 15.4721 16.9355C15.1172 16.8384 14.7466 16.8046 14.3775 16.8366C13.8738 16.8805 13.3881 17.0458 12.9637 17.3187C12.539 17.5915 12.1882 17.9634 11.9418 18.4016C11.6956 18.8397 11.5613 19.3313 11.5507 19.8329C11.5403 20.3091 11.6419 20.7811 11.8475 21.2115C11.986 21.5019 12.169 21.7677 12.3894 22.0001C12.5478 22.167 12.5382 22.4449 12.3394 22.561C12.143 22.6753 11.9413 22.7811 11.7347 22.8771C10.448 23.4784 8.75341 23.8526 6.65071 23.9999L0.339426 23.9958C0.0765288 23.9957 -0.0862318 23.7104 0.0481757 23.4854L2.98898 18.5589C3.04748 18.4608 3.15007 18.3989 3.26461 18.3974C4.21268 18.3847 7.3366 18.4317 7.72667 18.2391C8.14783 18.0304 8.4881 17.7113 8.74752 17.2822C9.00696 16.853 9.17415 16.3193 9.24877 15.6813L11.0497 6.94033H4.78756V2.3999H16.6712Z" fill="#D75F20"/>
<path d="M3.50781 3.27847C3.50781 2.79326 3.89006 2.3999 4.36158 2.3999H4.43089V6.94144H4.36158C3.89006 6.94144 3.50781 6.5481 3.50781 6.06287V3.27847Z" fill="#00827F"/>
</svg>
