<svg width="72" height="24" viewBox="0 0 72 24" fill="none" xmlns="http://www.w3.org/2000/svg">
<g clip-path="url(#clip0_111_1936)">
<path d="M28.873 3.67139C31.4384 3.67139 33.6658 4.59708 35.5552 6.44846C37.4445 8.29984 38.3892 10.6011 38.3892 13.3522C38.3892 16.086 37.4877 18.4218 35.6852 20.3597C33.8824 22.2803 31.6639 23.2407 29.029 23.2407C26.3944 23.2407 24.1498 22.289 22.295 20.3858C20.4577 18.4824 19.5391 16.2158 19.5391 13.5858C19.5391 12.1497 19.799 10.8087 20.3191 9.56292C20.8391 8.29984 21.5324 7.24438 22.3991 6.39655C23.2657 5.54872 24.2624 4.88257 25.3892 4.39811C26.5157 3.91362 27.6771 3.67139 28.873 3.67139ZM24.1412 13.456C24.1412 14.9959 24.635 16.2504 25.6231 17.2193C26.6285 18.171 27.7465 18.6467 28.9772 18.6467C30.2078 18.6467 31.3172 18.1796 32.3052 17.2453C33.2931 16.3109 33.7871 15.0565 33.7871 13.482C33.7871 11.9074 33.2844 10.6443 32.2792 9.69269C31.2911 8.74105 30.1818 8.26523 28.9511 8.26523C27.7205 8.26523 26.6111 8.74969 25.6231 9.71865C24.635 10.6703 24.1412 11.9161 24.1412 13.456Z" fill="white"/>
<path d="M44.1705 19.0879H51.2425C51.8145 19.0879 52.2306 19.1572 52.4905 19.2956C52.7505 19.4167 52.9238 19.6157 53.0106 19.8925C53.0972 20.1694 53.1405 20.5414 53.1405 21.0087C53.1405 21.4584 53.0972 21.8217 53.0106 22.0986C52.9238 22.3756 52.7765 22.5659 52.5684 22.6697C52.2391 22.8426 51.7884 22.9292 51.2165 22.9292H41.8565C40.643 22.9292 39.9324 22.6004 39.7244 21.943C39.6204 21.6661 39.5684 21.2249 39.5684 20.6193V6.18896C39.5684 5.79101 39.577 5.49686 39.5944 5.30654C39.6291 5.0989 39.7157 4.86532 39.8543 4.60577C40.0971 4.1386 40.7732 3.90503 41.8825 3.90503C43.0958 3.90503 43.8151 4.22512 44.0405 4.86532C44.1271 5.15945 44.1705 5.60932 44.1705 6.21492V19.0879Z" fill="white"/>
<path d="M61.8996 3.67139C64.4648 3.67139 66.6922 4.59708 68.5816 6.44846C70.4709 8.29984 71.4156 10.6011 71.4156 13.3522C71.4156 16.086 70.5143 18.4218 68.7115 20.3597C66.9089 22.2803 64.6902 23.2407 62.0556 23.2407C59.4208 23.2407 57.1764 22.289 55.3217 20.3858C53.4843 18.4824 52.5654 16.2158 52.5654 13.5858C52.5654 12.1497 52.8256 10.8087 53.3454 9.56292C53.8655 8.29984 54.5589 7.24438 55.4255 6.39655C56.2921 5.54872 57.289 4.88257 58.4157 4.39811C59.5424 3.91362 60.7035 3.67139 61.8996 3.67139ZM57.1675 13.456C57.1675 14.9959 57.6617 16.2504 58.6496 17.2193C59.655 18.171 60.7731 18.6467 62.0037 18.6467C63.2344 18.6467 64.3435 18.1796 65.3316 17.2453C66.3195 16.3109 66.8135 15.0565 66.8135 13.482C66.8135 11.9074 66.311 10.6443 65.3056 9.69269C64.3175 8.74105 63.2081 8.26523 61.9775 8.26523C60.7468 8.26523 59.6377 8.74969 58.6496 9.71865C57.6617 10.6703 57.1675 11.9161 57.1675 13.456Z" fill="white"/>
<path d="M15.2692 22.523C16.6968 22.523 17.8538 21.3658 17.8538 19.9386C17.8538 18.5109 16.6968 17.3538 15.2692 17.3538C13.8418 17.3538 12.6846 18.5109 12.6846 19.9386C12.6846 21.3658 13.8418 22.523 15.2692 22.523Z" fill="#00827F"/>
<path d="M17.1712 2.3999C17.6501 2.39994 18.0385 2.79319 18.0385 3.27827C18.0385 3.27827 18.0385 4.97486 18.0385 6.06197C18.0385 6.12876 18.0307 6.19371 18.0167 6.25622C18.0204 6.28589 18.0206 6.31659 18.0159 6.34787L16.5394 16.1215C16.5082 16.3085 16.4748 16.4923 16.4385 16.6728C16.3974 16.8791 16.1756 16.9912 15.9721 16.9355C15.6172 16.8384 15.2466 16.8046 14.8775 16.8366C14.3738 16.8805 13.8881 17.0458 13.4637 17.3187C13.039 17.5915 12.6882 17.9634 12.4418 18.4016C12.1956 18.8397 12.0613 19.3313 12.0507 19.8329C12.0403 20.3091 12.1419 20.7811 12.3475 21.2115C12.486 21.5019 12.669 21.7677 12.8894 22.0001C13.0478 22.167 13.0382 22.4449 12.8394 22.561C12.643 22.6753 12.4413 22.7811 12.2347 22.8771C10.948 23.4784 9.25341 23.8526 7.15071 23.9999L0.839426 23.9958C0.576529 23.9957 0.413768 23.7104 0.548176 23.4854L3.48898 18.5589C3.54748 18.4608 3.65007 18.3989 3.76461 18.3974C4.71268 18.3847 7.8366 18.4317 8.22667 18.2391C8.64783 18.0304 8.9881 17.7113 9.24752 17.2822C9.50696 16.853 9.67415 16.3193 9.74877 15.6813L11.5497 6.94033H5.28756V2.3999H17.1712Z" fill="white"/>
<path d="M4.00781 3.27847C4.00781 2.79326 4.39006 2.3999 4.86158 2.3999H4.93089V6.94144H4.86158C4.39006 6.94144 4.00781 6.5481 4.00781 6.06287V3.27847Z" fill="#00827F"/>
</g>
<defs>
<clipPath id="clip0_111_1936">
<rect width="71.0769" height="24" fill="white" transform="translate(0.5)"/>
</clipPath>
</defs>
</svg>
