<svg width="20" height="20" viewBox="0 0 20 20" fill="none" xmlns="http://www.w3.org/2000/svg">
<rect width="20" height="20" rx="4" fill="#9E3600"/>
<path d="M8 5.5C8.26522 5.5 8.51957 5.60536 8.70711 5.79289C8.89464 5.98043 9 6.23478 9 6.5V9.5C9 9.76522 8.89464 10.0196 8.70711 10.2071C8.51957 10.3946 8.26522 10.5 8 10.5C7.86739 10.5 7.74021 10.5527 7.64645 10.6464C7.55268 10.7402 7.5 10.8674 7.5 11V11.5C7.5 11.7652 7.60536 12.0196 7.79289 12.2071C7.98043 12.3946 8.23478 12.5 8.5 12.5C8.63261 12.5 8.75979 12.5527 8.85355 12.6464C8.94732 12.7402 9 12.8674 9 13V14C9 14.1326 8.94732 14.2598 8.85355 14.3536C8.75979 14.4473 8.63261 14.5 8.5 14.5C7.70435 14.5 6.94129 14.1839 6.37868 13.6213C5.81607 13.0587 5.5 12.2956 5.5 11.5V6.5C5.5 6.23478 5.60536 5.98043 5.79289 5.79289C5.98043 5.60536 6.23478 5.5 6.5 5.5H8Z" stroke="white" stroke-linecap="round" stroke-linejoin="round"/>
<path d="M13.5 5.5C13.7652 5.5 14.0196 5.60536 14.2071 5.79289C14.3946 5.98043 14.5 6.23478 14.5 6.5V9.5C14.5 9.76522 14.3946 10.0196 14.2071 10.2071C14.0196 10.3946 13.7652 10.5 13.5 10.5C13.3674 10.5 13.2402 10.5527 13.1464 10.6464C13.0527 10.7402 13 10.8674 13 11V11.5C13 11.7652 13.1054 12.0196 13.2929 12.2071C13.4804 12.3946 13.7348 12.5 14 12.5C14.1326 12.5 14.2598 12.5527 14.3536 12.6464C14.4473 12.7402 14.5 12.8674 14.5 13V14C14.5 14.1326 14.4473 14.2598 14.3536 14.3536C14.2598 14.4473 14.1326 14.5 14 14.5C13.2044 14.5 12.4413 14.1839 11.8787 13.6213C11.3161 13.0587 11 12.2956 11 11.5V6.5C11 6.23478 11.1054 5.98043 11.2929 5.79289C11.4804 5.60536 11.7348 5.5 12 5.5H13.5Z" stroke="white" stroke-linecap="round" stroke-linejoin="round"/>
</svg>
