<svg width="24" height="25" viewBox="0 0 24 25" fill="none" xmlns="http://www.w3.org/2000/svg">
<path d="M18.9054 7.27399C18.7449 6.86042 18.5529 6.56501 18.2428 6.25483C17.9327 5.94465 17.6373 5.75264 17.2239 5.59201C16.9119 5.47016 16.4431 5.32615 15.5792 5.28737C14.6452 5.24491 14.3646 5.23568 11.9982 5.23568C11.7029 5.23568 11.4389 5.23568 11.2026 5.23568C9.55058 5.23568 9.23493 5.24676 8.41721 5.28368C7.55334 5.32245 7.08449 5.46646 6.77254 5.58832C6.35907 5.74895 6.06373 5.94096 5.75362 6.25114C5.44351 6.56132 5.25154 6.85672 5.09095 7.2703C4.96913 7.58232 4.82515 8.05128 4.78639 8.91535C4.74393 9.84957 4.7347 10.1284 4.7347 12.4953C4.7347 14.8623 4.74393 15.1429 4.78639 16.0771C4.82515 16.9412 4.97097 17.4102 5.09095 17.7222C5.25154 18.1357 5.44351 18.4312 5.75362 18.7413C6.06373 19.0515 6.35907 19.2435 6.77254 19.4042C7.08449 19.526 7.55334 19.67 8.41721 19.7106C9.35122 19.7531 9.63179 19.7623 11.9982 19.7623C14.3646 19.7623 14.6452 19.7531 15.5792 19.7106C16.4431 19.6719 16.9119 19.5279 17.2239 19.406C17.6373 19.2454 17.9327 19.0534 18.2428 18.7432C18.5529 18.433 18.7449 18.1394 18.9054 17.7259C19.0273 17.4138 19.1712 16.9449 19.21 16.0808C19.2525 15.1466 19.2617 14.866 19.2617 12.5009C19.2617 10.1357 19.2525 9.85511 19.21 8.92088C19.1712 8.05682 19.0254 7.58786 18.9054 7.27583V7.27399ZM11.9982 17.052C9.48597 17.052 7.44813 15.0155 7.44813 12.5009C7.44813 9.9862 9.48597 7.94973 11.9982 7.94973C14.5104 7.94973 16.5483 9.98804 16.5483 12.5009C16.5483 15.0137 14.5123 17.052 11.9982 17.052ZM16.7273 8.83411C16.1403 8.83411 15.6641 8.35776 15.6641 7.77064C15.6641 7.18352 16.1403 6.70718 16.7273 6.70718C17.3143 6.70718 17.7905 7.18352 17.7905 7.77064C17.7905 8.35776 17.3143 8.83411 16.7273 8.83411Z" fill="#0E121B"/>
<path d="M11.9982 15.455C13.6293 15.455 14.9515 14.1324 14.9515 12.5009C14.9515 10.8695 13.6293 9.54688 11.9982 9.54688C10.367 9.54688 9.04476 10.8695 9.04476 12.5009C9.04476 14.1324 10.367 15.455 11.9982 15.455Z" fill="#0E121B"/>
<path d="M23.9778 5.70102C23.9022 4.73725 23.7379 4.0892 23.4001 3.40422C23.1232 2.84295 22.8168 2.42569 22.3719 1.99735C21.5782 1.23852 20.6073 0.776944 19.4499 0.610778C18.8888 0.529541 18.778 0.505539 15.9096 0.5H12.0037C6.994 0.5 5.52838 0.505539 5.24412 0.529541C4.21597 0.61447 3.57545 0.776944 2.87956 1.12405C2.34241 1.39176 1.91786 1.70009 1.50069 2.13397C0.738348 2.92419 0.27688 3.89534 0.110752 5.05297C0.0295339 5.61424 0.00553761 5.72871 0 8.59416C0 9.55054 0 10.8079 0 12.4954C0 17.5025 0.00553761 18.9667 0.0295339 19.251C0.112598 20.2517 0.269497 20.8813 0.601754 21.5699C1.23673 22.8882 2.44947 23.8778 3.87817 24.2471C4.37287 24.3745 4.91924 24.4446 5.62067 24.4778C5.91786 24.4908 8.94693 24.5 11.9778 24.5C15.0088 24.5 18.0397 24.4963 18.3295 24.4815C19.1417 24.4428 19.6142 24.38 20.1347 24.2452C21.5727 23.8741 22.7633 22.8993 23.4112 21.5625C23.736 20.8905 23.9022 20.2369 23.9778 19.2879C23.9945 19.0811 24 15.7836 24 12.4917C24 9.19975 23.9926 5.9078 23.976 5.70102H23.9778ZM20.8048 16.1547C20.7605 17.0982 20.611 17.7426 20.3932 18.3057C20.1661 18.8891 19.8634 19.3821 19.3706 19.875C18.8777 20.368 18.3849 20.6708 17.8016 20.8979C17.2386 21.1176 16.5925 21.2671 15.6493 21.3096C14.7042 21.3521 14.4033 21.3631 11.9963 21.3631C9.58929 21.3631 9.28842 21.3521 8.34333 21.3096C7.40009 21.2671 6.75588 21.1176 6.19289 20.8979C5.6096 20.6708 5.11675 20.368 4.6239 19.875C4.13106 19.3821 3.82833 18.8873 3.60129 18.3057C3.38163 17.7426 3.23396 17.0982 3.18966 16.1547C3.14721 15.2094 3.13613 14.9085 3.13613 12.5009C3.13613 10.0934 3.14721 9.79241 3.18966 8.8471C3.23212 7.90365 3.38163 7.25929 3.60129 6.69617C3.82833 6.11274 4.13106 5.61978 4.6239 5.12682C5.11675 4.63386 5.61144 4.33106 6.19289 4.10582C6.75588 3.88611 7.40009 3.73656 8.34333 3.69409C9.28842 3.65163 9.59114 3.64055 11.9945 3.64055H11.9982C14.4033 3.64055 14.7042 3.65163 15.6493 3.69409C16.5925 3.73656 17.2367 3.88611 17.8016 4.10582C18.3849 4.33106 18.8777 4.63386 19.3706 5.12682C19.8634 5.61978 20.1661 6.11459 20.3932 6.69617C20.611 7.25929 20.7605 7.90365 20.8048 8.8471C20.8473 9.79241 20.8583 10.0952 20.8583 12.5009C20.8583 14.9066 20.8473 15.2094 20.8048 16.1547Z" fill="#0E121B"/>
</svg>
