<svg width="24" height="25" viewBox="0 0 24 25" fill="none" xmlns="http://www.w3.org/2000/svg">
<path fill-rule="evenodd" clip-rule="evenodd" d="M21.3333 0.5H2.66667C1.19333 0.5 0 1.69333 0 3.16667V21.8333C0 23.3067 1.19333 24.5 2.66667 24.5H21.3333C22.8067 24.5 24 23.3067 24 21.8333V3.16667C24 1.69333 22.8067 0.5 21.3333 0.5ZM7.25667 21.1667H3.67667V9.61H7.25667V21.1667ZM5.45 8.09667C4.28 8.09667 3.33333 7.14333 3.33333 5.96333C3.33333 4.78333 4.28 3.83 5.45 3.83C6.62 3.83 7.56667 4.78333 7.56667 5.96333C7.56667 7.14333 6.62 8.09667 5.45 8.09667ZM20.6667 21.1667H17.1067V15.1C17.1067 13.4367 16.4733 12.5067 15.16 12.5067C13.7267 12.5067 12.98 13.4733 12.98 15.1V21.1667H9.54667V9.61H12.98V11.1667C12.98 11.1667 14.0133 9.25667 16.4633 9.25667C18.9133 9.25667 20.67 10.7533 20.67 13.85V21.1667H20.6667Z" fill="#0E121B"/>
</svg>
