<svg width="40" height="40" viewBox="0 0 40 40" fill="none" xmlns="http://www.w3.org/2000/svg">
<path d="M19.9999 30H6.66659C5.78253 30 4.93468 29.6488 4.30956 29.0237C3.68444 28.3986 3.33325 27.5507 3.33325 26.6667V13.3333C3.33325 12.4493 3.68444 11.6014 4.30956 10.9763C4.93468 10.3512 5.78253 10 6.66659 10H33.3333C34.2173 10 35.0652 10.3512 35.6903 10.9763C36.3154 11.6014 36.6666 12.4493 36.6666 13.3333V21.6667" stroke="black" stroke-width="2.5" stroke-linecap="round" stroke-linejoin="round"/>
<path d="M26.6667 31.6667L31.6667 36.6667L36.6667 31.6667" stroke="black" stroke-width="2.5" stroke-linecap="round" stroke-linejoin="round"/>
<path d="M30 20H30.0167" stroke="black" stroke-width="2.5" stroke-linecap="round" stroke-linejoin="round"/>
<path d="M31.6667 26.6667V36.6667" stroke="black" stroke-width="2.5" stroke-linecap="round" stroke-linejoin="round"/>
<path d="M10 20H10.0167" stroke="black" stroke-width="2.5" stroke-linecap="round" stroke-linejoin="round"/>
<path d="M20.0001 23.3334C21.841 23.3334 23.3334 21.841 23.3334 20.0001C23.3334 18.1591 21.841 16.6667 20.0001 16.6667C18.1591 16.6667 16.6667 18.1591 16.6667 20.0001C16.6667 21.841 18.1591 23.3334 20.0001 23.3334Z" stroke="black" stroke-width="2.5" stroke-linecap="round" stroke-linejoin="round"/>
</svg>
