<svg width="40" height="40" viewBox="0 0 40 40" fill="none" xmlns="http://www.w3.org/2000/svg">
<path d="M17.4999 5L13.3333 15L19.9999 36.6667L26.6666 15L22.4999 5" stroke="black" stroke-width="2.5" stroke-linecap="round" stroke-linejoin="round"/>
<path d="M28.3331 5C28.8506 5 29.3609 5.12048 29.8238 5.35191C30.2866 5.58334 30.6892 5.91935 30.9997 6.33333L35.9997 13C36.4286 13.5719 36.6622 14.2666 36.6661 14.9814C36.67 15.6963 36.444 16.3934 36.0214 16.97L22.7047 35.28C22.396 35.7091 21.9896 36.0587 21.5191 36.2998C21.0486 36.5409 20.5276 36.6667 19.9989 36.6667C19.4702 36.6667 18.9492 36.5409 18.4787 36.2998C18.0082 36.0587 17.6018 35.7091 17.2931 35.28L3.97641 16.97C3.55409 16.3932 3.32838 15.696 3.33258 14.9811C3.33678 14.2663 3.57067 13.5718 3.99974 13L8.99641 6.33833C9.30671 5.92298 9.70963 5.58573 10.1731 5.3534C10.6366 5.12107 11.1479 5.00006 11.6664 5H28.3331Z" stroke="black" stroke-width="2.5" stroke-linecap="round" stroke-linejoin="round"/>
<path d="M3.33325 15H36.6666" stroke="black" stroke-width="2.5" stroke-linecap="round" stroke-linejoin="round"/>
</svg>
