<svg width="40" height="40" viewBox="0 0 40 40" fill="none" xmlns="http://www.w3.org/2000/svg">
<path d="M10 36.6667C12.7614 36.6667 15 34.4282 15 31.6667C15 28.9053 12.7614 26.6667 10 26.6667C7.23858 26.6667 5 28.9053 5 31.6667C5 34.4282 7.23858 36.6667 10 36.6667Z" stroke="black" stroke-width="2.5" stroke-linecap="round" stroke-linejoin="round"/>
<path d="M15 31.6666H29.1667C30.7138 31.6666 32.1975 31.052 33.2915 29.958C34.3854 28.8641 35 27.3803 35 25.8333C35 24.2862 34.3854 22.8024 33.2915 21.7085C32.1975 20.6145 30.7138 19.9999 29.1667 19.9999H10.8333C9.28624 19.9999 7.80251 19.3853 6.70854 18.2914C5.61458 17.1974 5 15.7137 5 14.1666C5 12.6195 5.61458 11.1358 6.70854 10.0418C7.80251 8.94783 9.28624 8.33325 10.8333 8.33325H25" stroke="black" stroke-width="2.5" stroke-linecap="round" stroke-linejoin="round"/>
<path d="M30 13.3333C32.7614 13.3333 35 11.0947 35 8.33325C35 5.57183 32.7614 3.33325 30 3.33325C27.2386 3.33325 25 5.57183 25 8.33325C25 11.0947 27.2386 13.3333 30 13.3333Z" stroke="black" stroke-width="2.5" stroke-linecap="round" stroke-linejoin="round"/>
</svg>
