<svg width="40" height="40" viewBox="0 0 40 40" fill="none" xmlns="http://www.w3.org/2000/svg">
<path d="M5 18.3333H10C10.8841 18.3333 11.7319 18.6844 12.357 19.3096C12.9821 19.9347 13.3333 20.7825 13.3333 21.6666V26.6666C13.3333 27.5506 12.9821 28.3985 12.357 29.0236C11.7319 29.6487 10.8841 29.9999 10 29.9999H8.33333C7.44928 29.9999 6.60143 29.6487 5.97631 29.0236C5.35119 28.3985 5 27.5506 5 26.6666V18.3333ZM5 18.3333C5 16.3634 5.38799 14.4129 6.14181 12.593C6.89563 10.7731 8.00052 9.11953 9.3934 7.72665C10.7863 6.33377 12.4399 5.22888 14.2597 4.47506C16.0796 3.72124 18.0302 3.33325 20 3.33325C21.9698 3.33325 23.9204 3.72124 25.7403 4.47506C27.5601 5.22888 29.2137 6.33377 30.6066 7.72665C31.9995 9.11953 33.1044 10.7731 33.8582 12.593C34.612 14.4129 35 16.3634 35 18.3333M35 18.3333V26.6666C35 27.5506 34.6488 28.3985 34.0237 29.0236C33.3986 29.6487 32.5507 29.9999 31.6667 29.9999H30C29.1159 29.9999 28.2681 29.6487 27.643 29.0236C27.0179 28.3985 26.6667 27.5506 26.6667 26.6666V21.6666C26.6667 20.7825 27.0179 19.9347 27.643 19.3096C28.2681 18.6844 29.1159 18.3333 30 18.3333H35Z" stroke="black" stroke-width="2.5" stroke-linecap="round" stroke-linejoin="round"/>
<path d="M35 26.6667V30.0001C35 31.7682 34.2976 33.4639 33.0474 34.7141C31.7971 35.9644 30.1014 36.6667 28.3333 36.6667H20" stroke="black" stroke-width="2.5" stroke-linecap="round" stroke-linejoin="round"/>
</svg>
