<svg width="40" height="40" viewBox="0 0 40 40" fill="none" xmlns="http://www.w3.org/2000/svg">
<path d="M3.33301 11.6666L10.683 4.31659C10.9931 4.00464 11.3619 3.75715 11.7681 3.58838C12.1742 3.41961 12.6098 3.3329 13.0497 3.33325H26.9497C27.3895 3.3329 27.8251 3.41961 28.2313 3.58838C28.6375 3.75715 29.0062 4.00464 29.3163 4.31659L36.6663 11.6666" stroke="black" stroke-width="2.5" stroke-linecap="round" stroke-linejoin="round"/>
<path d="M6.66699 20V33.3333C6.66699 34.2174 7.01818 35.0652 7.6433 35.6904C8.26842 36.3155 9.11627 36.6667 10.0003 36.6667H30.0003C30.8844 36.6667 31.7322 36.3155 32.3573 35.6904C32.9825 35.0652 33.3337 34.2174 33.3337 33.3333V20" stroke="black" stroke-width="2.5" stroke-linecap="round" stroke-linejoin="round"/>
<path d="M25 36.6667V30.0001C25 29.116 24.6488 28.2682 24.0237 27.6431C23.3986 27.0179 22.5507 26.6667 21.6667 26.6667H18.3333C17.4493 26.6667 16.6014 27.0179 15.9763 27.6431C15.3512 28.2682 15 29.116 15 30.0001V36.6667" stroke="black" stroke-width="2.5" stroke-linecap="round" stroke-linejoin="round"/>
<path d="M3.33301 11.6667H36.6663" stroke="black" stroke-width="2.5" stroke-linecap="round" stroke-linejoin="round"/>
<path d="M36.6663 11.6667V16.6667C36.6663 17.5508 36.3152 18.3986 35.69 19.0238C35.0649 19.6489 34.2171 20.0001 33.333 20.0001C32.3592 19.9465 31.4292 19.578 30.683 18.9501C30.4841 18.8064 30.245 18.729 29.9997 18.729C29.7543 18.729 29.5152 18.8064 29.3163 18.9501C28.5701 19.578 27.6401 19.9465 26.6663 20.0001C25.6926 19.9465 24.7626 19.578 24.0163 18.9501C23.8175 18.8064 23.5784 18.729 23.333 18.729C23.0877 18.729 22.8485 18.8064 22.6497 18.9501C21.9035 19.578 20.9734 19.9465 19.9997 20.0001C19.0259 19.9465 18.0959 19.578 17.3497 18.9501C17.1508 18.8064 16.9117 18.729 16.6663 18.729C16.421 18.729 16.1819 18.8064 15.983 18.9501C15.2368 19.578 14.3068 19.9465 13.333 20.0001C12.3592 19.9465 11.4292 19.578 10.683 18.9501C10.4841 18.8064 10.245 18.729 9.99967 18.729C9.75432 18.729 9.51521 18.8064 9.31634 18.9501C8.57012 19.578 7.64012 19.9465 6.66634 20.0001C5.78229 20.0001 4.93444 19.6489 4.30932 19.0238C3.6842 18.3986 3.33301 17.5508 3.33301 16.6667V11.6667" stroke="black" stroke-width="2.5" stroke-linecap="round" stroke-linejoin="round"/>
</svg>
