<svg width="40" height="40" viewBox="0 0 40 40" fill="none" xmlns="http://www.w3.org/2000/svg">
<path d="M33.333 10H6.66634C4.82539 10 3.33301 11.4924 3.33301 13.3333V26.6667C3.33301 28.5076 4.82539 30 6.66634 30H33.333C35.174 30 36.6663 28.5076 36.6663 26.6667V13.3333C36.6663 11.4924 35.174 10 33.333 10Z" stroke="black" stroke-width="2.5" stroke-linecap="round" stroke-linejoin="round"/>
<path d="M20.0003 23.3334C21.8413 23.3334 23.3337 21.841 23.3337 20.0001C23.3337 18.1591 21.8413 16.6667 20.0003 16.6667C18.1594 16.6667 16.667 18.1591 16.667 20.0001C16.667 21.841 18.1594 23.3334 20.0003 23.3334Z" stroke="black" stroke-width="2.5" stroke-linecap="round" stroke-linejoin="round"/>
<path d="M10 20H10.0167M30 20H30.0167" stroke="black" stroke-width="2.5" stroke-linecap="round" stroke-linejoin="round"/>
</svg>
