<svg width="40" height="40" viewBox="0 0 40 40" fill="none" xmlns="http://www.w3.org/2000/svg">
<path d="M19.9997 26.6667H6.66634C5.78229 26.6667 4.93444 26.3155 4.30932 25.6904C3.6842 25.0652 3.33301 24.2174 3.33301 23.3333C3.33301 22.4493 3.6842 21.6014 4.30932 20.9763C4.93444 20.3512 5.78229 20 6.66634 20H33.333C34.2171 20 35.0649 20.3512 35.69 20.9763C36.3152 21.6014 36.6663 22.4493 36.6663 23.3333C36.6663 24.2174 36.3152 25.0652 35.69 25.6904C35.0649 26.3155 34.2171 26.6667 33.333 26.6667H26.2497" stroke="black" stroke-width="2.5" stroke-linecap="round" stroke-linejoin="round"/>
<path d="M8.33333 20C7.44928 20 6.60143 19.6488 5.97631 19.0237C5.35119 18.3986 5 17.5507 5 16.6667C5 13.5725 6.58035 10.605 9.3934 8.41709C12.2064 6.22916 16.0218 5 20 5C23.9782 5 27.7936 6.22916 30.6066 8.41709C33.4196 10.605 35 13.5725 35 16.6667C35 17.5507 34.6488 18.3986 34.0237 19.0237C33.3986 19.6488 32.5507 20 31.6667 20" stroke="black" stroke-width="2.5" stroke-linecap="round" stroke-linejoin="round"/>
<path d="M8.33333 26.6667C7.44928 26.6667 6.60143 27.0179 5.97631 27.6431C5.35119 28.2682 5 29.116 5 30.0001C5 31.3262 5.52678 32.5979 6.46447 33.5356C7.40215 34.4733 8.67392 35.0001 10 35.0001H30C31.3261 35.0001 32.5979 34.4733 33.5355 33.5356C34.4732 32.5979 35 31.3262 35 30.0001C35 29.116 34.6488 28.2682 34.0237 27.6431C33.3986 27.0179 32.5507 26.6667 31.6667 26.6667" stroke="black" stroke-width="2.5" stroke-linecap="round" stroke-linejoin="round"/>
<path d="M11.1162 20L21.3329 27.6667C22.0401 28.1971 22.9291 28.4249 23.8043 28.2998C24.2376 28.2379 24.6545 28.0913 25.0312 27.8682C25.4079 27.6452 25.7369 27.3502 25.9995 27L31.2495 20" stroke="black" stroke-width="2.5" stroke-linecap="round" stroke-linejoin="round"/>
</svg>
