<svg width="40" height="40" viewBox="0 0 40 40" fill="none" xmlns="http://www.w3.org/2000/svg">
<path d="M23.3333 31.6666V11.6666C23.3333 10.7825 22.9821 9.93468 22.357 9.30956C21.7319 8.68444 20.8841 8.33325 20 8.33325H15" stroke="black" stroke-width="2.5" stroke-linecap="round" stroke-linejoin="round"/>
<path d="M25 31.6667H15" stroke="black" stroke-width="2.5" stroke-linecap="round" stroke-linejoin="round"/>
<path d="M31.6663 31.6667H34.9997C35.4417 31.6667 35.8656 31.4911 36.1782 31.1785C36.4907 30.866 36.6663 30.442 36.6663 30V23.9167C36.6642 23.5407 36.5349 23.1766 36.2997 22.8833L30.4997 15.6333C30.3445 15.4369 30.147 15.278 29.9219 15.1683C29.6969 15.0587 29.45 15.0012 29.1997 15H23.333" stroke="black" stroke-width="2.5" stroke-linecap="round" stroke-linejoin="round"/>
<path d="M3.33301 21.6667V30.0001C3.33301 30.4421 3.5086 30.866 3.82116 31.1786C4.13372 31.4912 4.55765 31.6667 4.99967 31.6667H8.33301" stroke="black" stroke-width="2.5" stroke-linecap="round" stroke-linejoin="round"/>
<path d="M6.66695 5L3.58362 8.58333C3.45924 8.6971 3.37269 8.84624 3.33562 9.01067C3.29856 9.17511 3.31275 9.34695 3.37629 9.50308C3.43983 9.65921 3.54967 9.79213 3.69103 9.88395C3.83239 9.97577 3.99848 10.0221 4.16695 10.0167H7.75029C7.93195 9.97415 8.12283 9.99788 8.28856 10.0836C8.45429 10.1693 8.584 10.3113 8.65433 10.4841C8.72466 10.6569 8.73099 10.8492 8.6722 11.0262C8.61341 11.2033 8.49335 11.3536 8.33362 11.45L5.00029 15.0333" stroke="black" stroke-width="2.5" stroke-linecap="round" stroke-linejoin="round"/>
<path d="M28.3333 34.9999C30.1743 34.9999 31.6667 33.5075 31.6667 31.6666C31.6667 29.8256 30.1743 28.3333 28.3333 28.3333C26.4924 28.3333 25 29.8256 25 31.6666C25 33.5075 26.4924 34.9999 28.3333 34.9999Z" stroke="black" stroke-width="2.5" stroke-linecap="round" stroke-linejoin="round"/>
<path d="M11.6663 34.9999C13.5073 34.9999 14.9997 33.5075 14.9997 31.6666C14.9997 29.8256 13.5073 28.3333 11.6663 28.3333C9.82539 28.3333 8.33301 29.8256 8.33301 31.6666C8.33301 33.5075 9.82539 34.9999 11.6663 34.9999Z" stroke="black" stroke-width="2.5" stroke-linecap="round" stroke-linejoin="round"/>
</svg>
